<svg width="227" height="126" viewBox="0 0 227 126" fill="none" xmlns="http://www.w3.org/2000/svg">
<path fill-rule="evenodd" clip-rule="evenodd" d="M109.743 96.2311C110.619 95.23 112.246 95.1046 113.372 95.9806C122.632 103.739 134.52 108.369 147.66 108.369C160.674 108.369 172.687 103.739 181.947 95.9806C183.074 95.1046 184.575 95.1049 185.576 96.2311L194.086 105.491C194.962 106.492 194.962 108.119 193.961 108.995C181.572 119.507 165.429 125.889 147.785 125.889C130.141 125.889 114.123 119.507 101.609 108.995C100.608 108.119 100.483 106.492 101.484 105.491L109.743 96.2311Z" fill="#2BFCB3"/>
<path d="M12.8891 0C14.2656 0 15.3919 1.12623 15.3919 2.50274V32.0352C19.8968 27.28 25.7783 25.1527 32.786 25.1527C48.5533 25.1527 61.1921 39.1681 61.1921 56.1868C61.1921 73.3306 48.5532 87.2206 30.6586 87.2206C12.6389 87.2206 0 73.3306 0 56.1868V2.50274C0 1.12623 1.12623 0 2.50274 0H12.8891ZM30.6586 39.168C22.1493 39.168 15.2668 46.8013 15.2668 56.3117C15.2668 65.5719 22.1493 73.0803 30.6586 73.0803C39.168 73.0803 46.0505 65.8222 46.0505 56.3117C46.0505 46.4259 39.168 39.168 30.6586 39.168Z" fill="#3D24FA"/>
<path d="M98.4808 24.7769C112.121 24.7769 123.633 33.0358 127.137 47.802C127.387 48.9282 126.762 50.0547 125.635 50.5552L85.5916 67.4488C88.5949 71.4532 93.0999 73.8306 98.2305 73.8306C102.735 73.8306 107.24 72.0787 109.993 68.1994C110.494 67.4486 111.37 66.948 112.246 66.948H123.633C125.26 66.948 126.511 68.5748 125.886 70.0765C121.631 80.4629 111.745 87.2202 98.3556 87.2202C81.5872 87.2202 67.9473 73.3302 67.9473 56.1864C68.0724 38.9175 81.7124 24.7769 98.4808 24.7769ZM97.8551 38.4167C90.3469 38.4167 84.09 43.6726 82.338 51.6814C81.9626 53.4333 83.8397 54.8097 85.4665 54.0588L106.49 45.049C107.991 44.4233 108.492 42.4213 107.115 41.4202C104.612 39.5431 101.359 38.4167 97.8551 38.4167Z" fill="#3D24FA"/>
<path d="M160.173 85.5933C161.424 85.5933 162.425 84.4669 162.425 83.2155V74.331C162.425 72.8293 161.174 71.703 159.797 71.703C154.041 71.3276 151.163 68.0741 151.163 60.8161V2.75226C151.163 1.37575 150.037 0.249512 148.66 0.249512H138.274C136.897 0.249512 135.771 1.37575 135.771 2.75226V60.8161C135.646 76.3331 144.155 86.3442 160.173 85.5933Z" fill="#3D24FA"/>
<path d="M197.218 24.7769C213.611 24.7769 227.001 38.2917 227.001 56.0612C227.001 73.8306 213.611 87.0952 197.218 87.0952C180.825 87.0952 167.561 73.8306 167.561 56.0612C167.561 38.2917 180.825 24.7769 197.218 24.7769ZM197.343 39.2929C189.209 39.2929 182.702 46.4257 182.702 56.8121C182.702 66.8231 189.334 73.8306 197.343 73.8306C205.477 73.8306 211.984 66.9482 211.984 56.8121C211.984 46.4257 205.352 39.2929 197.343 39.2929Z" fill="#3D24FA"/>
</svg>
