<svg width="1400" height="634" viewBox="0 0 1400 634" fill="none" xmlns="http://www.w3.org/2000/svg">
<path d="M42.0734 149.6C83.1082 149.6 116.373 116.335 116.373 75.3C116.373 34.2652 83.1082 1 42.0734 1C1.03868 1 -32.2266 34.2652 -32.2266 75.3C-32.2266 116.335 1.03868 149.6 42.0734 149.6Z" stroke="#2BFCB3" stroke-width="1.5564" stroke-miterlimit="10"/>
<path d="M342.775 394.3C383.809 394.3 417.075 361.035 417.075 320C417.075 278.965 383.809 245.7 342.775 245.7C301.74 245.7 268.475 278.965 268.475 320C268.475 361.035 301.74 394.3 342.775 394.3Z" stroke="#2BFCB3" stroke-width="1.5564" stroke-miterlimit="10"/>
<path d="M1335.97 490.3C1377.01 490.3 1410.27 457.035 1410.27 416C1410.27 374.965 1377.01 341.7 1335.97 341.7C1294.94 341.7 1261.67 374.965 1261.67 416C1261.67 457.035 1294.94 490.3 1335.97 490.3Z" stroke="#27E0FC" stroke-width="1.5564" stroke-miterlimit="10"/>
<path d="M1120.77 320C1161.81 320 1195.07 286.735 1195.07 245.7C1195.07 204.665 1161.81 171.4 1120.77 171.4C1079.74 171.4 1046.47 204.665 1046.47 245.7C1046.47 286.735 1079.74 320 1120.77 320Z" stroke="#FDDA4D" stroke-width="1.5564" stroke-miterlimit="10"/>
<path d="M123.875 457.3L-5.22462 422.2C-9.22462 421.1 -11.5246 417 -10.4246 413.1L24.6754 284C25.7754 280 29.8754 277.7 33.7754 278.8L162.875 313.9C166.875 315 169.175 319.1 168.075 323L132.975 452.1C131.875 456 127.775 458.4 123.875 457.3Z" stroke="#FDDA4D" stroke-width="1.5564" stroke-miterlimit="10"/>
<path d="M50.1744 196.8L-24.4256 307.8C-26.7256 311.2 -31.3256 312.1 -34.7256 309.8L-145.726 235.2C-149.126 232.9 -150.026 228.3 -147.726 224.9L-73.1256 113.9C-70.8256 110.5 -66.2256 109.6 -62.8256 111.9L48.1744 186.5C51.5744 188.7 52.4744 193.4 50.1744 196.8Z" stroke="#3D24FA" stroke-width="1.5564" stroke-miterlimit="10"/>
<path d="M1485.47 198.6L1352.77 215.2C1348.67 215.7 1344.97 212.8 1344.47 208.7L1327.87 76C1327.37 71.9 1330.27 68.2 1334.37 67.7L1467.07 51.1C1471.17 50.6 1474.87 53.5 1475.37 57.6L1491.97 190.3C1492.37 194.4 1489.57 198.1 1485.47 198.6Z" stroke="#EF5130" stroke-width="1.5564" stroke-miterlimit="10"/>
<path d="M171.575 146.5C234.675 125.4 304.075 153.3 334.775 212.3C337.475 217.5 335.175 223.9 329.775 226.2L223.775 271.3C218.675 273.5 212.775 271.1 210.575 266L165.475 160C163.175 154.6 165.975 148.4 171.575 146.5Z" stroke="#EF5130" stroke-width="1.5564" stroke-miterlimit="10"/>
<path d="M1111.08 346.3C1116.28 412.6 1169.18 465.5 1235.48 470.7C1241.28 471.2 1246.27 466.5 1246.27 460.7V345.5C1246.27 339.9 1241.78 335.4 1236.18 335.4H1120.98C1115.28 335.4 1110.68 340.4 1111.08 346.3Z" stroke="#EF5130" stroke-width="1.5564" stroke-miterlimit="10"/>
<path d="M1207.77 205.8C1172.17 149.6 1182.67 75.5998 1232.47 31.4998C1236.87 27.5998 1243.67 28.2998 1247.17 32.9998L1316.37 125.1C1319.67 129.5 1318.77 135.8 1314.37 139.2L1222.27 208.4C1217.57 212 1210.87 210.8 1207.77 205.8Z" stroke="#3D24FA" stroke-width="1.5564" stroke-miterlimit="10"/>
<path d="M5.37354 578.5L96.0735 488.7C101.874 482.9 99.5735 473.1 91.8735 470.5L-43.2265 424.6C-51.8265 421.7 -60.0265 429.8 -57.2265 438.4L-12.8265 574.1C-10.3265 581.9 -0.526461 584.3 5.37354 578.5Z" stroke="#EF5130" stroke-width="1.5564" stroke-miterlimit="10"/>
<path d="M43.8753 265.6L170.675 280.2C178.775 281.1 185.075 273.2 182.275 265.5L133.575 131.4C130.475 122.9 118.975 121.5 113.975 129.1L35.8753 248.6C31.4753 255.5 35.7753 264.6 43.8753 265.6Z" stroke="#27E0FC" stroke-width="1.5564" stroke-miterlimit="10"/>
<path d="M171.775 456.3L295.675 425.5C303.575 423.5 306.675 413.9 301.375 407.7L208.575 299.2C202.675 292.3 191.474 295.1 189.474 304L158.375 443.2C156.575 451.2 163.775 458.3 171.775 456.3Z" stroke="#3D24FA" stroke-width="1.5564" stroke-miterlimit="10"/>
<path d="M1456.07 470L1335.17 511C1327.47 513.6 1325.17 523.5 1330.97 529.2L1432.37 629.6C1438.77 636 1449.77 632.3 1450.97 623.3L1470.47 481.9C1471.67 473.8 1463.87 467.4 1456.07 470Z" stroke="#2BFCB3" stroke-width="1.5564" stroke-miterlimit="10"/>
<path d="M1445.58 381.5L1515.28 274.6C1519.78 267.7 1515.48 258.6 1507.28 257.7L1365.48 241.4C1356.48 240.4 1350.18 250.1 1354.68 257.9L1426.78 381.1C1430.98 388.1 1441.08 388.3 1445.58 381.5Z" stroke="#3D24FA" stroke-width="1.5564" stroke-miterlimit="10"/>
<path d="M1357.88 310.9L1316.88 190C1314.28 182.3 1304.38 180 1298.68 185.8L1198.28 287.2C1191.88 293.6 1195.58 304.6 1204.58 305.8L1345.98 325.2C1354.08 326.4 1360.48 318.6 1357.88 310.9Z" stroke="#2BFCB3" stroke-width="1.5564" stroke-miterlimit="10"/>
</svg>
