<svg width="1400" height="218" viewBox="0 0 1400 218" fill="none" xmlns="http://www.w3.org/2000/svg">
<g clip-path="url(#clip0)">
<path d="M10.1434 264.5C39.5249 264.5 63.3434 240.682 63.3434 211.3C63.3434 181.919 39.5249 158.1 10.1434 158.1C-19.2382 158.1 -43.0566 181.919 -43.0566 211.3C-43.0566 240.682 -19.2382 264.5 10.1434 264.5Z" stroke="#2BFCB3" stroke-width="1.1152" stroke-miterlimit="10"/>
<path d="M1275.44 239.1C1304.83 239.1 1328.64 215.282 1328.64 185.9C1328.64 156.519 1304.83 132.7 1275.44 132.7C1246.06 132.7 1222.24 156.519 1222.24 185.9C1222.24 215.282 1246.06 239.1 1275.44 239.1Z" stroke="#2BFCB3" stroke-width="1.1152" stroke-miterlimit="10"/>
<path d="M914.143 301C943.525 301 967.343 277.182 967.343 247.8C967.343 218.419 943.525 194.6 914.143 194.6C884.762 194.6 860.943 218.419 860.943 247.8C860.943 277.182 884.762 301 914.143 301Z" stroke="#2BFCB3" stroke-width="1.1152" stroke-miterlimit="10"/>
<path d="M445.845 183.1C475.226 183.1 499.044 159.282 499.044 129.9C499.044 100.519 475.226 76.7002 445.845 76.7002C416.463 76.7002 392.645 100.519 392.645 129.9C392.645 159.282 416.463 183.1 445.845 183.1Z" stroke="#2BFCB3" stroke-width="1.1152" stroke-miterlimit="10"/>
<path d="M435.344 243.7L355.544 296.8C353.144 298.4 349.744 297.8 348.144 295.3L295.044 215.5C293.444 213.1 294.044 209.7 296.544 208.1L376.444 155C378.844 153.4 382.244 154 383.844 156.5L436.944 236.3C438.444 238.7 437.844 242 435.344 243.7Z" stroke="#2BFCB3" stroke-width="1.1152" stroke-miterlimit="10"/>
<path d="M148.744 112.6L85.8443 184.9C83.9443 187.1 80.5443 187.4 78.3443 185.4L6.04432 122.5C3.84432 120.6 3.54432 117.2 5.54432 115L68.4443 42.7001C70.3443 40.5001 73.7443 40.2001 75.9443 42.2001L148.244 105.1C150.444 107 150.644 110.4 148.744 112.6Z" stroke="#2BFCB3" stroke-width="1.1152" stroke-miterlimit="10"/>
<path d="M1044.04 154.8L956.944 194.8C954.244 196 951.144 194.9 949.844 192.2L909.844 105.1C908.644 102.4 909.744 99.2999 912.444 97.9999L999.544 57.9999C1002.24 56.7999 1005.34 57.8999 1006.64 60.5999L1046.64 147.7C1047.94 150.4 1046.74 153.5 1044.04 154.8Z" stroke="#2BFCB3" stroke-width="1.1152" stroke-miterlimit="10"/>
<path d="M258.845 179.4C294.445 211.1 301.745 264.2 276.145 304.3C273.845 307.8 269.045 308.7 265.745 306.2L199.945 256.4C196.745 254 196.145 249.5 198.545 246.3L248.345 180.5C250.845 177.1 255.645 176.6 258.845 179.4Z" stroke="#2BFCB3" stroke-width="1.1152" stroke-miterlimit="10"/>
<path d="M239.145 108C280.745 84.8001 333.345 95.4001 362.745 132.9C365.345 136.2 364.545 141 361.045 143.4L292.345 189C289.045 191.2 284.545 190.3 282.345 187L236.645 118.3C234.345 114.8 235.445 110.1 239.145 108Z" stroke="#2BFCB3" stroke-width="1.1152" stroke-miterlimit="10"/>
<path d="M-74.2558 10.5001C-32.6558 -12.6999 19.9442 -2.09991 49.3442 35.4001C51.9442 38.7001 51.1442 43.5001 47.6442 45.9001L-21.0558 91.6001C-24.3558 93.8001 -28.8558 92.9001 -31.0558 89.6001L-76.7558 20.8001C-79.1558 17.3001 -77.9558 12.5001 -74.2558 10.5001Z" stroke="#2BFCB3" stroke-width="1.1152" stroke-miterlimit="10"/>
<path d="M921.443 178.6C917.643 131.1 879.743 93.2003 832.243 89.4003C828.043 89.1003 824.443 92.4003 824.443 96.6003V179.1C824.443 183.1 827.643 186.3 831.643 186.3H914.243C918.443 186.4 921.743 182.8 921.443 178.6Z" stroke="#2BFCB3" stroke-width="1.1152" stroke-miterlimit="10"/>
<path d="M1118.24 109C1154.54 78.1002 1208.14 78.1002 1244.34 109C1247.54 111.7 1247.74 116.6 1244.74 119.6L1186.34 178C1183.54 180.8 1178.94 180.8 1176.14 178L1117.74 119.6C1114.84 116.6 1115.04 111.7 1118.24 109Z" stroke="#2BFCB3" stroke-width="1.1152" stroke-miterlimit="10"/>
<path d="M109.545 178.8L144.845 263.2C147.145 268.6 154.245 269.7 158.145 265.3L224.845 187.8C229.045 182.9 225.845 175.2 219.445 174.8L117.445 167.9C111.545 167.5 107.345 173.4 109.545 178.8Z" stroke="#2BFCB3" stroke-width="1.1152" stroke-miterlimit="10"/>
<path d="M144.243 155.9L235.043 166.4C240.843 167.1 245.343 161.4 243.343 155.9L208.443 59.8001C206.243 53.7001 197.943 52.7001 194.443 58.2001L138.543 143.8C135.343 148.7 138.443 155.2 144.243 155.9Z" stroke="#2BFCB3" stroke-width="1.1152" stroke-miterlimit="10"/>
<path d="M629.445 100.4L600.445 191.7C599.545 194.5 596.545 196.1 593.745 195.2L502.445 166.2C499.645 165.3 498.045 162.3 498.945 159.5L527.945 68.1999C528.845 65.3999 531.845 63.7999 534.645 64.6999L625.945 93.6999C628.845 94.5999 630.345 97.5999 629.445 100.4Z" stroke="#2BFCB3" stroke-width="1.1152" stroke-miterlimit="10"/>
<path d="M738.744 197.7L747.244 293.1C747.544 296 745.344 298.6 742.444 298.9L647.044 307.4C644.144 307.7 641.544 305.5 641.244 302.6L632.744 207.2C632.444 204.3 634.644 201.7 637.544 201.4L732.944 192.9C735.944 192.6 738.544 194.8 738.744 197.7Z" stroke="#2BFCB3" stroke-width="1.1152" stroke-miterlimit="10"/>
<path d="M1448.54 187.9L1432.44 282.4C1431.94 285.3 1429.24 287.2 1426.34 286.8L1331.84 270.7C1328.94 270.2 1327.04 267.5 1327.44 264.6L1343.54 170.1C1344.04 167.2 1346.74 165.3 1349.64 165.7L1444.14 181.8C1447.14 182.3 1449.04 185 1448.54 187.9Z" stroke="#2BFCB3" stroke-width="1.1152" stroke-miterlimit="10"/>
<path d="M1448.64 44.2002L1460.74 139.3C1461.14 142.2 1459.04 144.9 1456.14 145.3L1361.04 157.4C1358.14 157.8 1355.44 155.7 1355.04 152.8L1342.94 57.7002C1342.54 54.8002 1344.64 52.1002 1347.54 51.7002L1442.64 39.6002C1445.64 39.2002 1448.34 41.3002 1448.64 44.2002Z" stroke="#2BFCB3" stroke-width="1.1152" stroke-miterlimit="10"/>
<path d="M798.744 168.2C751.144 170.4 708.844 137.5 699.144 90.8001C698.344 86.7001 701.144 82.7001 705.344 82.2001L787.244 71.9001C791.144 71.4001 794.744 74.2001 795.244 78.1001L805.544 160C806.044 164.3 802.944 168 798.744 168.2Z" stroke="#2BFCB3" stroke-width="1.1152" stroke-miterlimit="10"/>
<path d="M618.744 205.6C571.144 202.4 528.144 234.4 517.544 280.8C516.644 284.9 519.344 288.9 523.544 289.5L605.144 301.5C609.044 302.1 612.744 299.4 613.344 295.4L625.344 213.7C625.944 209.6 622.944 205.8 618.744 205.6Z" stroke="#2BFCB3" stroke-width="1.1152" stroke-miterlimit="10"/>
<path d="M749.044 179.8L760.444 270.5C761.144 276.3 767.744 279.3 772.644 276.1L857.744 219.3C863.144 215.7 862.144 207.5 855.944 205.3L759.544 171.3C753.944 169.5 748.244 174 749.044 179.8Z" stroke="#2BFCB3" stroke-width="1.1152" stroke-miterlimit="10"/>
<path d="M629.243 190.5L719.944 179.1C725.744 178.4 728.743 171.8 725.543 166.9L668.743 81.8002C665.143 76.4002 656.943 77.4002 654.743 83.6002L620.743 180C618.943 185.6 623.443 191.3 629.243 190.5Z" stroke="#2BFCB3" stroke-width="1.1152" stroke-miterlimit="10"/>
<path d="M39.9445 300.5L130.745 311C136.545 311.7 141.045 306 139.045 300.5L104.145 204.4C101.945 198.3 93.6445 197.3 90.1445 202.8L34.2445 288.4C31.0445 293.2 34.1445 299.8 39.9445 300.5Z" stroke="#2BFCB3" stroke-width="1.1152" stroke-miterlimit="10"/>
<path d="M970.144 210.2L985.544 300.4C986.544 306.2 993.244 308.9 997.944 305.4L1080.44 245C1085.64 241.2 1084.24 233 1078.04 231.1L980.244 201.4C974.644 199.6 969.144 204.4 970.144 210.2Z" stroke="#2BFCB3" stroke-width="1.1152" stroke-miterlimit="10"/>
<path d="M1126.94 224.6L1115.14 133.9C1114.34 128.1 1107.74 125.1 1102.94 128.4L1018.14 185.5C1012.74 189.1 1013.84 197.4 1019.94 199.5L1116.54 233.1C1122.04 235 1127.64 230.4 1126.94 224.6Z" stroke="#2BFCB3" stroke-width="1.1152" stroke-miterlimit="10"/>
<path d="M1243.64 83.0001L1319.84 32.4001C1324.74 29.2001 1331.34 32.2001 1332.04 38.0001L1344.64 139.5C1345.44 146 1338.54 150.5 1332.94 147.3L1244.24 96.5001C1238.94 93.5001 1238.74 86.2001 1243.64 83.0001Z" stroke="#2BFCB3" stroke-width="1.1152" stroke-miterlimit="10"/>
<path d="M503.845 284.1L541.745 200.9C544.145 195.6 540.145 189.5 534.245 189.8L432.045 193.5C425.545 193.7 422.145 201.3 426.245 206.3L490.545 285.8C494.245 290.3 501.445 289.4 503.845 284.1Z" stroke="#2BFCB3" stroke-width="1.1152" stroke-miterlimit="10"/>
<path d="M1146.54 285.8L1226.54 241.5C1231.64 238.7 1232.04 231.4 1227.14 228.1L1142.84 170.3C1137.44 166.6 1130.24 170.6 1130.54 177.1L1134.84 279.3C1135.14 285.1 1141.44 288.6 1146.54 285.8Z" stroke="#2BFCB3" stroke-width="1.1152" stroke-miterlimit="10"/>
</g>
<defs>
<clipPath id="clip0">
<rect width="1400" height="218" fill="white"/>
</clipPath>
</defs>
</svg>
